<mxfile host="app.diagrams.net" agent="Mozilla/5.0 (Windows NT 10.0; Win64; x64) AppleWebKit/537.36 (KHTML, like Gecko) Chrome/134.0.0.0 Safari/537.36" version="26.1.0" pages="2">
  <diagram name="Página-1" id="NgVYdIMle0E7xTPefZEH">
    <mxGraphModel dx="1290" dy="557" grid="1" gridSize="2" guides="1" tooltips="1" connect="1" arrows="1" fold="1" page="1" pageScale="1" pageWidth="827" pageHeight="1169" math="0" shadow="0">
      <root>
        <mxCell id="0" />
        <mxCell id="1" parent="0" />
        <mxCell id="ecCC4HI8B20jCKqS90fL-31" style="edgeStyle=orthogonalEdgeStyle;rounded=0;orthogonalLoop=1;jettySize=auto;html=1;exitX=0.75;exitY=0.1;exitDx=0;exitDy=0;exitPerimeter=0;entryX=0;entryY=0.5;entryDx=0;entryDy=0;" edge="1" parent="1" source="ecCC4HI8B20jCKqS90fL-16" target="ecCC4HI8B20jCKqS90fL-18">
          <mxGeometry relative="1" as="geometry" />
        </mxCell>
        <mxCell id="ecCC4HI8B20jCKqS90fL-32" style="edgeStyle=orthogonalEdgeStyle;rounded=0;orthogonalLoop=1;jettySize=auto;html=1;exitX=1;exitY=1;exitDx=0;exitDy=0;exitPerimeter=0;entryX=0;entryY=0.5;entryDx=0;entryDy=0;" edge="1" parent="1" source="ecCC4HI8B20jCKqS90fL-16" target="ecCC4HI8B20jCKqS90fL-17">
          <mxGeometry relative="1" as="geometry" />
        </mxCell>
        <mxCell id="ecCC4HI8B20jCKqS90fL-16" value="Actor" style="shape=umlActor;verticalLabelPosition=bottom;verticalAlign=top;html=1;outlineConnect=0;" vertex="1" parent="1">
          <mxGeometry x="30" y="92" width="30" height="60" as="geometry" />
        </mxCell>
        <mxCell id="ecCC4HI8B20jCKqS90fL-17" value="cancelar reserva" style="ellipse;whiteSpace=wrap;html=1;" vertex="1" parent="1">
          <mxGeometry x="168" y="138" width="106" height="72" as="geometry" />
        </mxCell>
        <mxCell id="ecCC4HI8B20jCKqS90fL-18" value="fazer reserva" style="ellipse;whiteSpace=wrap;html=1;" vertex="1" parent="1">
          <mxGeometry x="170" y="26" width="102" height="76" as="geometry" />
        </mxCell>
      </root>
    </mxGraphModel>
  </diagram>
  <diagram id="y7YP9VrGE8cymBGdRqbS" name="Página-2">
    <mxGraphModel dx="1720" dy="1912" grid="1" gridSize="2" guides="1" tooltips="1" connect="1" arrows="1" fold="1" page="1" pageScale="1" pageWidth="827" pageHeight="1169" math="0" shadow="0">
      <root>
        <mxCell id="0" />
        <mxCell id="1" parent="0" />
        <mxCell id="rdwS4pyjt9N_rk8EhliA-5" value="" style="ellipse;whiteSpace=wrap;html=1;" vertex="1" parent="1">
          <mxGeometry x="258" y="388" width="120" height="80" as="geometry" />
        </mxCell>
        <mxCell id="rdwS4pyjt9N_rk8EhliA-6" value="" style="ellipse;whiteSpace=wrap;html=1;" vertex="1" parent="1">
          <mxGeometry x="258" y="476" width="120" height="80" as="geometry" />
        </mxCell>
        <mxCell id="rdwS4pyjt9N_rk8EhliA-7" value="" style="ellipse;whiteSpace=wrap;html=1;" vertex="1" parent="1">
          <mxGeometry x="250" y="-74" width="120" height="80" as="geometry" />
        </mxCell>
        <mxCell id="rdwS4pyjt9N_rk8EhliA-8" value="" style="ellipse;whiteSpace=wrap;html=1;" vertex="1" parent="1">
          <mxGeometry x="254" y="100" width="120" height="80" as="geometry" />
        </mxCell>
        <mxCell id="rdwS4pyjt9N_rk8EhliA-9" value="" style="ellipse;whiteSpace=wrap;html=1;" vertex="1" parent="1">
          <mxGeometry x="252" y="12" width="120" height="80" as="geometry" />
        </mxCell>
        <mxCell id="rdwS4pyjt9N_rk8EhliA-10" value="" style="ellipse;whiteSpace=wrap;html=1;" vertex="1" parent="1">
          <mxGeometry x="256" y="186" width="120" height="80" as="geometry" />
        </mxCell>
        <mxCell id="rdwS4pyjt9N_rk8EhliA-12" value="Actor" style="shape=umlActor;verticalLabelPosition=bottom;verticalAlign=top;html=1;outlineConnect=0;" vertex="1" parent="1">
          <mxGeometry x="60" y="424" width="30" height="86" as="geometry" />
        </mxCell>
        <mxCell id="rdwS4pyjt9N_rk8EhliA-13" value="Actor" style="shape=umlActor;verticalLabelPosition=bottom;verticalAlign=top;html=1;outlineConnect=0;" vertex="1" parent="1">
          <mxGeometry x="552" y="166" width="30" height="102" as="geometry" />
        </mxCell>
        <mxCell id="rdwS4pyjt9N_rk8EhliA-15" value="Actor" style="shape=umlActor;verticalLabelPosition=bottom;verticalAlign=top;html=1;outlineConnect=0;" vertex="1" parent="1">
          <mxGeometry x="44" y="40" width="30" height="90" as="geometry" />
        </mxCell>
        <mxCell id="rdwS4pyjt9N_rk8EhliA-17" value="" style="endArrow=none;html=1;rounded=0;" edge="1" parent="1">
          <mxGeometry width="50" height="50" relative="1" as="geometry">
            <mxPoint x="98" y="78" as="sourcePoint" />
            <mxPoint x="242" y="-14" as="targetPoint" />
          </mxGeometry>
        </mxCell>
        <mxCell id="rdwS4pyjt9N_rk8EhliA-18" value="" style="endArrow=none;html=1;rounded=0;" edge="1" parent="1">
          <mxGeometry width="50" height="50" relative="1" as="geometry">
            <mxPoint x="102" y="86" as="sourcePoint" />
            <mxPoint x="238" y="46" as="targetPoint" />
          </mxGeometry>
        </mxCell>
        <mxCell id="rdwS4pyjt9N_rk8EhliA-19" value="" style="endArrow=none;html=1;rounded=0;" edge="1" parent="1">
          <mxGeometry width="50" height="50" relative="1" as="geometry">
            <mxPoint x="106" y="98" as="sourcePoint" />
            <mxPoint x="248" y="108" as="targetPoint" />
          </mxGeometry>
        </mxCell>
        <mxCell id="rdwS4pyjt9N_rk8EhliA-20" value="" style="endArrow=none;html=1;rounded=0;" edge="1" parent="1">
          <mxGeometry width="50" height="50" relative="1" as="geometry">
            <mxPoint x="104" y="108" as="sourcePoint" />
            <mxPoint x="244" y="184" as="targetPoint" />
          </mxGeometry>
        </mxCell>
        <mxCell id="rdwS4pyjt9N_rk8EhliA-21" value="" style="endArrow=none;html=1;rounded=0;" edge="1" parent="1">
          <mxGeometry width="50" height="50" relative="1" as="geometry">
            <mxPoint x="118" y="470" as="sourcePoint" />
            <mxPoint x="242" y="442" as="targetPoint" />
          </mxGeometry>
        </mxCell>
        <mxCell id="rdwS4pyjt9N_rk8EhliA-23" value="" style="endArrow=none;html=1;rounded=0;" edge="1" parent="1">
          <mxGeometry width="50" height="50" relative="1" as="geometry">
            <mxPoint x="116" y="482" as="sourcePoint" />
            <mxPoint x="242" y="524" as="targetPoint" />
          </mxGeometry>
        </mxCell>
        <mxCell id="rdwS4pyjt9N_rk8EhliA-27" value="" style="endArrow=none;html=1;rounded=0;" edge="1" parent="1">
          <mxGeometry width="50" height="50" relative="1" as="geometry">
            <mxPoint x="384" y="26" as="sourcePoint" />
            <mxPoint x="548" y="170" as="targetPoint" />
            <Array as="points">
              <mxPoint x="366" y="8" />
            </Array>
          </mxGeometry>
        </mxCell>
        <mxCell id="rdwS4pyjt9N_rk8EhliA-31" value="" style="endArrow=none;html=1;rounded=0;" edge="1" parent="1">
          <mxGeometry width="50" height="50" relative="1" as="geometry">
            <mxPoint x="374" y="79" as="sourcePoint" />
            <mxPoint x="524" y="201" as="targetPoint" />
          </mxGeometry>
        </mxCell>
        <mxCell id="rdwS4pyjt9N_rk8EhliA-33" value="" style="endArrow=none;html=1;rounded=0;" edge="1" parent="1">
          <mxGeometry width="50" height="50" relative="1" as="geometry">
            <mxPoint x="378" y="142" as="sourcePoint" />
            <mxPoint x="534" y="228" as="targetPoint" />
          </mxGeometry>
        </mxCell>
        <mxCell id="rdwS4pyjt9N_rk8EhliA-35" value="" style="endArrow=none;html=1;rounded=0;" edge="1" parent="1">
          <mxGeometry width="50" height="50" relative="1" as="geometry">
            <mxPoint x="378" y="226" as="sourcePoint" />
            <mxPoint x="536" y="236" as="targetPoint" />
          </mxGeometry>
        </mxCell>
        <mxCell id="rdwS4pyjt9N_rk8EhliA-36" value="" style="endArrow=none;html=1;rounded=0;" edge="1" parent="1">
          <mxGeometry width="50" height="50" relative="1" as="geometry">
            <mxPoint x="398" y="404" as="sourcePoint" />
            <mxPoint x="536" y="286" as="targetPoint" />
            <Array as="points">
              <mxPoint x="398" y="404" />
            </Array>
          </mxGeometry>
        </mxCell>
        <mxCell id="rdwS4pyjt9N_rk8EhliA-38" value="" style="endArrow=none;html=1;rounded=0;" edge="1" parent="1">
          <mxGeometry width="50" height="50" relative="1" as="geometry">
            <mxPoint x="410" y="484" as="sourcePoint" />
            <mxPoint x="556" y="308" as="targetPoint" />
          </mxGeometry>
        </mxCell>
      </root>
    </mxGraphModel>
  </diagram>
</mxfile>
